<!DOCTYPE svg PUBLIC "-//W3C//DTD SVG 20010904//EN"
        "http://www.w3.org/TR/2001/REC-SVG-20010904/DTD/svg10.dtd">
<svg version="1.0" xmlns="http://www.w3.org/2000/svg" width="800px"
     height="800px" viewBox="0 0 8000 8000" preserveAspectRatio="xMidYMid meet">
    <g id="layer101" fill="#2d2d2d" stroke="none">
        <path d="M1115 7993 c-73 -10 -207 -46 -290 -78 -179 -69 -337 -176 -474 -321 -131 -138 -220 -285 -284 -470 -72 -207 -67 28 -67 -3124 0 -2565 2 -2845 16 -2930 79 -462 421 -858 869 -1008 199 -66 -17 -62 3115 -62 2563 0 2846 2 2931 16 249 43 479 160 669 341 184 174 302 379 372 643 l23 85 2 2875 c4 3185 8 2947 -62 3157 -62 185 -153 336 -286 477 -177 187 -384 308 -649 378 l-85 23 -2885 1 c-1587 1 -2898 -1 -2915 -3z"/>
    </g>
    <g id="layer102" fill="#ffa000" stroke="none">
        <path d="M5017 6410 c-78 -25 -158 -79 -204 -138 -21 -27 -211 -349 -422 -715 -212 -367 -388 -667 -391 -667 -3 0 -170 285 -371 633 -261 454 -378 647 -413 685 -33 35 -75 65 -125 90 -74 36 -77 37 -191 37 -109 0 -119 -2 -183 -32 -208 -99 -309 -341 -229 -548 10 -28 179 -328 376 -668 196 -339 359 -624 362 -632 5 -13 -84 -15 -729 -15 -500 0 -753 -4 -789 -11 -225 -47 -379 -273 -340 -499 29 -167 137 -292 307 -354 20 -7 282 -12 795 -16 l765 -5 -387 -670 c-213 -368 -397 -695 -409 -725 -72 -189 1 -411 171 -520 186 -120 446 -80 577 88 21 27 211 348 423 715 211 367 387 667 390 667 3 0 91 -147 195 -327 104 -181 269 -467 368 -638 200 -347 230 -385 346 -443 73 -36 77 -37 191 -37 114 0 117 1 191 37 164 81 260 246 246 423 -3 39 -14 93 -24 120 -11 28 -184 335 -385 683 l-366 632 739 0 c509 0 754 3 791 11 162 35 290 159 334 324 62 231 -97 484 -334 534 -36 7 -289 11 -789 11 -647 0 -734 2 -729 15 3 8 175 308 383 667 207 359 387 679 401 711 94 231 -35 502 -277 577 -80 25 -186 25 -264 0z"/>
    </g>
</svg>
